<?xml version="1.0" encoding="utf-8" standalone="no"?>
<!DOCTYPE svg PUBLIC "-//W3C//DTD SVG 1.1//EN"
  "http://www.w3.org/Graphics/SVG/1.1/DTD/svg11.dtd">
<svg xmlns:xlink="http://www.w3.org/1999/xlink" width="719.18pt" height="272.242315pt" viewBox="0 0 719.18 272.242315" xmlns="http://www.w3.org/2000/svg" version="1.1">
 <metadata>
  <rdf:RDF xmlns:dc="http://purl.org/dc/elements/1.1/" xmlns:cc="http://creativecommons.org/ns#" xmlns:rdf="http://www.w3.org/1999/02/22-rdf-syntax-ns#">
   <cc:Work>
    <dc:type rdf:resource="http://purl.org/dc/dcmitype/StillImage"/>
    <dc:date>2025-05-31T13:06:17.478370</dc:date>
    <dc:format>image/svg+xml</dc:format>
    <dc:creator>
     <cc:Agent>
      <dc:title>Matplotlib v3.10.0, https://matplotlib.org/</dc:title>
     </cc:Agent>
    </dc:creator>
   </cc:Work>
  </rdf:RDF>
 </metadata>
 <defs>
  <style type="text/css">*{stroke-linejoin: round; stroke-linecap: butt}</style>
 </defs>
 <g id="figure_1">
  <g id="patch_1">
   <path d="M 0 272.242315 
L 719.18 272.242315 
L 719.18 0 
L 0 0 
z
" style="fill: #ffffff"/>
  </g>
  <g id="axes_1">
   <g id="patch_2">
    <path d="M 42.68 218.44751 
L 259.3 218.44751 
L 259.3 46.94 
L 42.68 46.94 
z
" style="fill: #ffffff"/>
   </g>
   <g id="matplotlib.axis_1">
    <g id="xtick_1">
     <g id="line2d_1">
      <path d="M 67.191161 218.44751 
L 67.191161 46.94 
" clip-path="url(#p57570ab036)" style="fill: none; stroke: #cccccc; stroke-width: 0.8; stroke-linecap: round"/>
     </g>
     <g id="line2d_2"/>
     <g id="text_1">
      <!-- 131072 -->
      <g style="fill: #262626" transform="translate(58.219964 247.793147) rotate(-45) scale(0.09 -0.09)">
       <defs>
        <path id="LiberationSans-31" d="M 488 0 
L 488 478 
L 1609 478 
L 1609 3866 
L 616 3156 
L 616 3688 
L 1656 4403 
L 2175 4403 
L 2175 478 
L 3247 478 
L 3247 0 
L 488 0 
z
" transform="scale(0.015625)"/>
        <path id="LiberationSans-33" d="M 3278 1216 
Q 3278 606 2890 271 
Q 2503 -63 1784 -63 
Q 1116 -63 717 239 
Q 319 541 244 1131 
L 825 1184 
Q 938 403 1784 403 
Q 2209 403 2451 612 
Q 2694 822 2694 1234 
Q 2694 1594 2417 1795 
Q 2141 1997 1619 1997 
L 1300 1997 
L 1300 2484 
L 1606 2484 
Q 2069 2484 2323 2686 
Q 2578 2888 2578 3244 
Q 2578 3597 2370 3801 
Q 2163 4006 1753 4006 
Q 1381 4006 1151 3815 
Q 922 3625 884 3278 
L 319 3322 
Q 381 3863 767 4166 
Q 1153 4469 1759 4469 
Q 2422 4469 2789 4161 
Q 3156 3853 3156 3303 
Q 3156 2881 2920 2617 
Q 2684 2353 2234 2259 
L 2234 2247 
Q 2728 2194 3003 1916 
Q 3278 1638 3278 1216 
z
" transform="scale(0.015625)"/>
        <path id="LiberationSans-30" d="M 3309 2203 
Q 3309 1100 2920 518 
Q 2531 -63 1772 -63 
Q 1013 -63 631 515 
Q 250 1094 250 2203 
Q 250 3338 620 3903 
Q 991 4469 1791 4469 
Q 2569 4469 2939 3897 
Q 3309 3325 3309 2203 
z
M 2738 2203 
Q 2738 3156 2517 3584 
Q 2297 4013 1791 4013 
Q 1272 4013 1045 3591 
Q 819 3169 819 2203 
Q 819 1266 1048 831 
Q 1278 397 1778 397 
Q 2275 397 2506 840 
Q 2738 1284 2738 2203 
z
" transform="scale(0.015625)"/>
        <path id="LiberationSans-37" d="M 3238 3947 
Q 2563 2916 2284 2331 
Q 2006 1747 1867 1178 
Q 1728 609 1728 0 
L 1141 0 
Q 1141 844 1498 1776 
Q 1856 2709 2694 3925 
L 328 3925 
L 328 4403 
L 3238 4403 
L 3238 3947 
z
" transform="scale(0.015625)"/>
        <path id="LiberationSans-32" d="M 322 0 
L 322 397 
Q 481 763 711 1042 
Q 941 1322 1194 1548 
Q 1447 1775 1695 1969 
Q 1944 2163 2144 2356 
Q 2344 2550 2467 2762 
Q 2591 2975 2591 3244 
Q 2591 3606 2378 3806 
Q 2166 4006 1788 4006 
Q 1428 4006 1195 3811 
Q 963 3616 922 3263 
L 347 3316 
Q 409 3844 795 4156 
Q 1181 4469 1788 4469 
Q 2453 4469 2811 4155 
Q 3169 3841 3169 3263 
Q 3169 3006 3051 2753 
Q 2934 2500 2703 2247 
Q 2472 1994 1819 1463 
Q 1459 1169 1246 933 
Q 1034 697 941 478 
L 3238 478 
L 3238 0 
L 322 0 
z
" transform="scale(0.015625)"/>
       </defs>
       <use xlink:href="#LiberationSans-31"/>
       <use xlink:href="#LiberationSans-33" transform="translate(55.615234 0)"/>
       <use xlink:href="#LiberationSans-31" transform="translate(111.230469 0)"/>
       <use xlink:href="#LiberationSans-30" transform="translate(166.845703 0)"/>
       <use xlink:href="#LiberationSans-37" transform="translate(222.460938 0)"/>
       <use xlink:href="#LiberationSans-32" transform="translate(278.076172 0)"/>
      </g>
     </g>
    </g>
    <g id="xtick_2">
     <g id="line2d_3">
      <path d="M 109.09058 218.44751 
L 109.09058 46.94 
" clip-path="url(#p57570ab036)" style="fill: none; stroke: #cccccc; stroke-width: 0.8; stroke-linecap: round"/>
     </g>
     <g id="line2d_4"/>
     <g id="text_2">
      <!-- 262144 -->
      <g style="fill: #262626" transform="translate(100.119384 247.793147) rotate(-45) scale(0.09 -0.09)">
       <defs>
        <path id="LiberationSans-36" d="M 3278 1441 
Q 3278 744 2900 340 
Q 2522 -63 1856 -63 
Q 1113 -63 719 490 
Q 325 1044 325 2100 
Q 325 3244 734 3856 
Q 1144 4469 1900 4469 
Q 2897 4469 3156 3572 
L 2619 3475 
Q 2453 4013 1894 4013 
Q 1413 4013 1148 3564 
Q 884 3116 884 2266 
Q 1038 2550 1316 2698 
Q 1594 2847 1953 2847 
Q 2563 2847 2920 2465 
Q 3278 2084 3278 1441 
z
M 2706 1416 
Q 2706 1894 2472 2153 
Q 2238 2413 1819 2413 
Q 1425 2413 1183 2183 
Q 941 1953 941 1550 
Q 941 1041 1192 716 
Q 1444 391 1838 391 
Q 2244 391 2475 664 
Q 2706 938 2706 1416 
z
" transform="scale(0.015625)"/>
        <path id="LiberationSans-34" d="M 2753 997 
L 2753 0 
L 2222 0 
L 2222 997 
L 147 997 
L 147 1434 
L 2163 4403 
L 2753 4403 
L 2753 1441 
L 3372 1441 
L 3372 997 
L 2753 997 
z
M 2222 3769 
Q 2216 3750 2134 3603 
Q 2053 3456 2013 3397 
L 884 1734 
L 716 1503 
L 666 1441 
L 2222 1441 
L 2222 3769 
z
" transform="scale(0.015625)"/>
       </defs>
       <use xlink:href="#LiberationSans-32"/>
       <use xlink:href="#LiberationSans-36" transform="translate(55.615234 0)"/>
       <use xlink:href="#LiberationSans-32" transform="translate(111.230469 0)"/>
       <use xlink:href="#LiberationSans-31" transform="translate(166.845703 0)"/>
       <use xlink:href="#LiberationSans-34" transform="translate(222.460938 0)"/>
       <use xlink:href="#LiberationSans-34" transform="translate(278.076172 0)"/>
      </g>
     </g>
    </g>
    <g id="xtick_3">
     <g id="line2d_5">
      <path d="M 150.99 218.44751 
L 150.99 46.94 
" clip-path="url(#p57570ab036)" style="fill: none; stroke: #cccccc; stroke-width: 0.8; stroke-linecap: round"/>
     </g>
     <g id="line2d_6"/>
     <g id="text_3">
      <!-- 524288 -->
      <g style="fill: #262626" transform="translate(142.018804 247.793147) rotate(-45) scale(0.09 -0.09)">
       <defs>
        <path id="LiberationSans-35" d="M 3291 1434 
Q 3291 738 2877 337 
Q 2463 -63 1728 -63 
Q 1113 -63 734 206 
Q 356 475 256 984 
L 825 1050 
Q 1003 397 1741 397 
Q 2194 397 2450 670 
Q 2706 944 2706 1422 
Q 2706 1838 2448 2094 
Q 2191 2350 1753 2350 
Q 1525 2350 1328 2278 
Q 1131 2206 934 2034 
L 384 2034 
L 531 4403 
L 3034 4403 
L 3034 3925 
L 1044 3925 
L 959 2528 
Q 1325 2809 1869 2809 
Q 2519 2809 2905 2428 
Q 3291 2047 3291 1434 
z
" transform="scale(0.015625)"/>
        <path id="LiberationSans-38" d="M 3281 1228 
Q 3281 619 2893 278 
Q 2506 -63 1781 -63 
Q 1075 -63 676 271 
Q 278 606 278 1222 
Q 278 1653 525 1947 
Q 772 2241 1156 2303 
L 1156 2316 
Q 797 2400 589 2681 
Q 381 2963 381 3341 
Q 381 3844 757 4156 
Q 1134 4469 1769 4469 
Q 2419 4469 2795 4162 
Q 3172 3856 3172 3334 
Q 3172 2956 2962 2675 
Q 2753 2394 2391 2322 
L 2391 2309 
Q 2813 2241 3047 1952 
Q 3281 1663 3281 1228 
z
M 2588 3303 
Q 2588 4050 1769 4050 
Q 1372 4050 1164 3862 
Q 956 3675 956 3303 
Q 956 2925 1170 2726 
Q 1384 2528 1775 2528 
Q 2172 2528 2380 2711 
Q 2588 2894 2588 3303 
z
M 2697 1281 
Q 2697 1691 2453 1898 
Q 2209 2106 1769 2106 
Q 1341 2106 1100 1882 
Q 859 1659 859 1269 
Q 859 359 1788 359 
Q 2247 359 2472 579 
Q 2697 800 2697 1281 
z
" transform="scale(0.015625)"/>
       </defs>
       <use xlink:href="#LiberationSans-35"/>
       <use xlink:href="#LiberationSans-32" transform="translate(55.615234 0)"/>
       <use xlink:href="#LiberationSans-34" transform="translate(111.230469 0)"/>
       <use xlink:href="#LiberationSans-32" transform="translate(166.845703 0)"/>
       <use xlink:href="#LiberationSans-38" transform="translate(222.460938 0)"/>
       <use xlink:href="#LiberationSans-38" transform="translate(278.076172 0)"/>
      </g>
     </g>
    </g>
    <g id="xtick_4">
     <g id="line2d_7">
      <path d="M 192.88942 218.44751 
L 192.88942 46.94 
" clip-path="url(#p57570ab036)" style="fill: none; stroke: #cccccc; stroke-width: 0.8; stroke-linecap: round"/>
     </g>
     <g id="line2d_8"/>
     <g id="text_4">
      <!-- 1048576 -->
      <g style="fill: #262626" transform="translate(182.148744 251.332105) rotate(-45) scale(0.09 -0.09)">
       <use xlink:href="#LiberationSans-31"/>
       <use xlink:href="#LiberationSans-30" transform="translate(55.615234 0)"/>
       <use xlink:href="#LiberationSans-34" transform="translate(111.230469 0)"/>
       <use xlink:href="#LiberationSans-38" transform="translate(166.845703 0)"/>
       <use xlink:href="#LiberationSans-35" transform="translate(222.460938 0)"/>
       <use xlink:href="#LiberationSans-37" transform="translate(278.076172 0)"/>
       <use xlink:href="#LiberationSans-36" transform="translate(333.691406 0)"/>
      </g>
     </g>
    </g>
    <g id="xtick_5">
     <g id="line2d_9">
      <path d="M 234.788839 218.44751 
L 234.788839 46.94 
" clip-path="url(#p57570ab036)" style="fill: none; stroke: #cccccc; stroke-width: 0.8; stroke-linecap: round"/>
     </g>
     <g id="line2d_10"/>
     <g id="text_5">
      <!-- 2097152 -->
      <g style="fill: #262626" transform="translate(224.048164 251.332105) rotate(-45) scale(0.09 -0.09)">
       <defs>
        <path id="LiberationSans-39" d="M 3256 2291 
Q 3256 1156 2842 546 
Q 2428 -63 1663 -63 
Q 1147 -63 836 154 
Q 525 372 391 856 
L 928 941 
Q 1097 391 1672 391 
Q 2156 391 2422 841 
Q 2688 1291 2700 2125 
Q 2575 1844 2272 1673 
Q 1969 1503 1606 1503 
Q 1013 1503 656 1909 
Q 300 2316 300 2988 
Q 300 3678 687 4073 
Q 1075 4469 1766 4469 
Q 2500 4469 2878 3925 
Q 3256 3381 3256 2291 
z
M 2644 2834 
Q 2644 3366 2400 3689 
Q 2156 4013 1747 4013 
Q 1341 4013 1106 3736 
Q 872 3459 872 2988 
Q 872 2506 1106 2226 
Q 1341 1947 1741 1947 
Q 1984 1947 2193 2058 
Q 2403 2169 2523 2372 
Q 2644 2575 2644 2834 
z
" transform="scale(0.015625)"/>
       </defs>
       <use xlink:href="#LiberationSans-32"/>
       <use xlink:href="#LiberationSans-30" transform="translate(55.615234 0)"/>
       <use xlink:href="#LiberationSans-39" transform="translate(111.230469 0)"/>
       <use xlink:href="#LiberationSans-37" transform="translate(166.845703 0)"/>
       <use xlink:href="#LiberationSans-31" transform="translate(222.460938 0)"/>
       <use xlink:href="#LiberationSans-35" transform="translate(278.076172 0)"/>
       <use xlink:href="#LiberationSans-32" transform="translate(333.691406 0)"/>
      </g>
     </g>
    </g>
   </g>
   <g id="matplotlib.axis_2">
    <g id="ytick_1">
     <g id="line2d_11">
      <path d="M 42.68 218.44751 
L 259.3 218.44751 
" clip-path="url(#p57570ab036)" style="fill: none; stroke-dasharray: 2.96,1.28; stroke-dashoffset: 0; stroke: #cccccc; stroke-opacity: 0.7; stroke-width: 0.8"/>
     </g>
     <g id="line2d_12"/>
     <g id="text_6">
      <!-- 0 -->
      <g style="fill: #262626" transform="translate(34.175156 221.708604) scale(0.09 -0.09)">
       <use xlink:href="#LiberationSans-30"/>
      </g>
     </g>
    </g>
    <g id="ytick_2">
     <g id="line2d_13">
      <path d="M 42.68 197.699938 
L 259.3 197.699938 
" clip-path="url(#p57570ab036)" style="fill: none; stroke-dasharray: 2.96,1.28; stroke-dashoffset: 0; stroke: #cccccc; stroke-opacity: 0.7; stroke-width: 0.8"/>
     </g>
     <g id="line2d_14"/>
     <g id="text_7">
      <!-- 50 -->
      <g style="fill: #262626" transform="translate(29.170313 200.961032) scale(0.09 -0.09)">
       <use xlink:href="#LiberationSans-35"/>
       <use xlink:href="#LiberationSans-30" transform="translate(55.615234 0)"/>
      </g>
     </g>
    </g>
    <g id="ytick_3">
     <g id="line2d_15">
      <path d="M 42.68 176.952366 
L 259.3 176.952366 
" clip-path="url(#p57570ab036)" style="fill: none; stroke-dasharray: 2.96,1.28; stroke-dashoffset: 0; stroke: #cccccc; stroke-opacity: 0.7; stroke-width: 0.8"/>
     </g>
     <g id="line2d_16"/>
     <g id="text_8">
      <!-- 100 -->
      <g style="fill: #262626" transform="translate(24.165469 180.21346) scale(0.09 -0.09)">
       <use xlink:href="#LiberationSans-31"/>
       <use xlink:href="#LiberationSans-30" transform="translate(55.615234 0)"/>
       <use xlink:href="#LiberationSans-30" transform="translate(111.230469 0)"/>
      </g>
     </g>
    </g>
    <g id="ytick_4">
     <g id="line2d_17">
      <path d="M 42.68 156.204795 
L 259.3 156.204795 
" clip-path="url(#p57570ab036)" style="fill: none; stroke-dasharray: 2.96,1.28; stroke-dashoffset: 0; stroke: #cccccc; stroke-opacity: 0.7; stroke-width: 0.8"/>
     </g>
     <g id="line2d_18"/>
     <g id="text_9">
      <!-- 150 -->
      <g style="fill: #262626" transform="translate(24.165469 159.465888) scale(0.09 -0.09)">
       <use xlink:href="#LiberationSans-31"/>
       <use xlink:href="#LiberationSans-35" transform="translate(55.615234 0)"/>
       <use xlink:href="#LiberationSans-30" transform="translate(111.230469 0)"/>
      </g>
     </g>
    </g>
    <g id="ytick_5">
     <g id="line2d_19">
      <path d="M 42.68 135.457223 
L 259.3 135.457223 
" clip-path="url(#p57570ab036)" style="fill: none; stroke-dasharray: 2.96,1.28; stroke-dashoffset: 0; stroke: #cccccc; stroke-opacity: 0.7; stroke-width: 0.8"/>
     </g>
     <g id="line2d_20"/>
     <g id="text_10">
      <!-- 200 -->
      <g style="fill: #262626" transform="translate(24.165469 138.718317) scale(0.09 -0.09)">
       <use xlink:href="#LiberationSans-32"/>
       <use xlink:href="#LiberationSans-30" transform="translate(55.615234 0)"/>
       <use xlink:href="#LiberationSans-30" transform="translate(111.230469 0)"/>
      </g>
     </g>
    </g>
    <g id="ytick_6">
     <g id="line2d_21">
      <path d="M 42.68 114.709651 
L 259.3 114.709651 
" clip-path="url(#p57570ab036)" style="fill: none; stroke-dasharray: 2.96,1.28; stroke-dashoffset: 0; stroke: #cccccc; stroke-opacity: 0.7; stroke-width: 0.8"/>
     </g>
     <g id="line2d_22"/>
     <g id="text_11">
      <!-- 250 -->
      <g style="fill: #262626" transform="translate(24.165469 117.970745) scale(0.09 -0.09)">
       <use xlink:href="#LiberationSans-32"/>
       <use xlink:href="#LiberationSans-35" transform="translate(55.615234 0)"/>
       <use xlink:href="#LiberationSans-30" transform="translate(111.230469 0)"/>
      </g>
     </g>
    </g>
    <g id="ytick_7">
     <g id="line2d_23">
      <path d="M 42.68 93.962079 
L 259.3 93.962079 
" clip-path="url(#p57570ab036)" style="fill: none; stroke-dasharray: 2.96,1.28; stroke-dashoffset: 0; stroke: #cccccc; stroke-opacity: 0.7; stroke-width: 0.8"/>
     </g>
     <g id="line2d_24"/>
     <g id="text_12">
      <!-- 300 -->
      <g style="fill: #262626" transform="translate(24.165469 97.223173) scale(0.09 -0.09)">
       <use xlink:href="#LiberationSans-33"/>
       <use xlink:href="#LiberationSans-30" transform="translate(55.615234 0)"/>
       <use xlink:href="#LiberationSans-30" transform="translate(111.230469 0)"/>
      </g>
     </g>
    </g>
    <g id="ytick_8">
     <g id="line2d_25">
      <path d="M 42.68 73.214508 
L 259.3 73.214508 
" clip-path="url(#p57570ab036)" style="fill: none; stroke-dasharray: 2.96,1.28; stroke-dashoffset: 0; stroke: #cccccc; stroke-opacity: 0.7; stroke-width: 0.8"/>
     </g>
     <g id="line2d_26"/>
     <g id="text_13">
      <!-- 350 -->
      <g style="fill: #262626" transform="translate(24.165469 76.475601) scale(0.09 -0.09)">
       <use xlink:href="#LiberationSans-33"/>
       <use xlink:href="#LiberationSans-35" transform="translate(55.615234 0)"/>
       <use xlink:href="#LiberationSans-30" transform="translate(111.230469 0)"/>
      </g>
     </g>
    </g>
    <g id="ytick_9">
     <g id="line2d_27">
      <path d="M 42.68 52.466936 
L 259.3 52.466936 
" clip-path="url(#p57570ab036)" style="fill: none; stroke-dasharray: 2.96,1.28; stroke-dashoffset: 0; stroke: #cccccc; stroke-opacity: 0.7; stroke-width: 0.8"/>
     </g>
     <g id="line2d_28"/>
     <g id="text_14">
      <!-- 400 -->
      <g style="fill: #262626" transform="translate(24.165469 55.72803) scale(0.09 -0.09)">
       <use xlink:href="#LiberationSans-34"/>
       <use xlink:href="#LiberationSans-30" transform="translate(55.615234 0)"/>
       <use xlink:href="#LiberationSans-30" transform="translate(111.230469 0)"/>
      </g>
     </g>
    </g>
    <g id="text_15">
     <!-- Speedup -->
     <g style="fill: #262626" transform="translate(18.297969 150.709927) rotate(-90) scale(0.09 -0.09)">
      <defs>
       <path id="LiberationSans-53" d="M 3975 1216 
Q 3975 606 3498 271 
Q 3022 -63 2156 -63 
Q 547 -63 291 1056 
L 869 1172 
Q 969 775 1294 589 
Q 1619 403 2178 403 
Q 2756 403 3070 601 
Q 3384 800 3384 1184 
Q 3384 1400 3286 1534 
Q 3188 1669 3009 1756 
Q 2831 1844 2584 1903 
Q 2338 1963 2038 2031 
Q 1516 2147 1245 2262 
Q 975 2378 819 2520 
Q 663 2663 580 2853 
Q 497 3044 497 3291 
Q 497 3856 930 4162 
Q 1363 4469 2169 4469 
Q 2919 4469 3316 4239 
Q 3713 4009 3872 3456 
L 3284 3353 
Q 3188 3703 2916 3861 
Q 2644 4019 2163 4019 
Q 1634 4019 1356 3844 
Q 1078 3669 1078 3322 
Q 1078 3119 1186 2986 
Q 1294 2853 1497 2761 
Q 1700 2669 2306 2534 
Q 2509 2488 2711 2439 
Q 2913 2391 3097 2323 
Q 3281 2256 3442 2165 
Q 3603 2075 3722 1944 
Q 3841 1813 3908 1634 
Q 3975 1456 3975 1216 
z
" transform="scale(0.015625)"/>
       <path id="LiberationSans-70" d="M 3291 1706 
Q 3291 -63 2047 -63 
Q 1266 -63 997 525 
L 981 525 
Q 994 500 994 -6 
L 994 -1328 
L 431 -1328 
L 431 2691 
Q 431 3213 413 3381 
L 956 3381 
Q 959 3369 965 3292 
Q 972 3216 980 3056 
Q 988 2897 988 2838 
L 1000 2838 
Q 1150 3150 1397 3295 
Q 1644 3441 2047 3441 
Q 2672 3441 2981 3022 
Q 3291 2603 3291 1706 
z
M 2700 1694 
Q 2700 2400 2509 2703 
Q 2319 3006 1903 3006 
Q 1569 3006 1380 2865 
Q 1191 2725 1092 2426 
Q 994 2128 994 1650 
Q 994 984 1206 668 
Q 1419 353 1897 353 
Q 2316 353 2508 661 
Q 2700 969 2700 1694 
z
" transform="scale(0.015625)"/>
       <path id="LiberationSans-65" d="M 863 1572 
Q 863 991 1103 675 
Q 1344 359 1806 359 
Q 2172 359 2392 506 
Q 2613 653 2691 878 
L 3184 738 
Q 2881 -63 1806 -63 
Q 1056 -63 664 384 
Q 272 831 272 1713 
Q 272 2550 664 2997 
Q 1056 3444 1784 3444 
Q 3275 3444 3275 1647 
L 3275 1572 
L 863 1572 
z
M 2694 2003 
Q 2647 2538 2422 2783 
Q 2197 3028 1775 3028 
Q 1366 3028 1127 2754 
Q 888 2481 869 2003 
L 2694 2003 
z
" transform="scale(0.015625)"/>
       <path id="LiberationSans-64" d="M 2566 544 
Q 2409 219 2151 78 
Q 1894 -63 1513 -63 
Q 872 -63 570 368 
Q 269 800 269 1675 
Q 269 3444 1513 3444 
Q 1897 3444 2153 3303 
Q 2409 3163 2566 2856 
L 2572 2856 
L 2566 3234 
L 2566 4638 
L 3128 4638 
L 3128 697 
Q 3128 169 3147 0 
L 2609 0 
Q 2600 50 2589 231 
Q 2578 413 2578 544 
L 2566 544 
z
M 859 1694 
Q 859 984 1046 678 
Q 1234 372 1656 372 
Q 2134 372 2350 703 
Q 2566 1034 2566 1731 
Q 2566 2403 2350 2715 
Q 2134 3028 1663 3028 
Q 1238 3028 1048 2714 
Q 859 2400 859 1694 
z
" transform="scale(0.015625)"/>
       <path id="LiberationSans-75" d="M 981 3381 
L 981 1238 
Q 981 903 1047 718 
Q 1113 534 1256 453 
Q 1400 372 1678 372 
Q 2084 372 2318 650 
Q 2553 928 2553 1422 
L 2553 3381 
L 3116 3381 
L 3116 722 
Q 3116 131 3134 0 
L 2603 0 
Q 2600 16 2597 84 
Q 2594 153 2589 242 
Q 2584 331 2578 578 
L 2569 578 
Q 2375 228 2120 82 
Q 1866 -63 1488 -63 
Q 931 -63 673 214 
Q 416 491 416 1128 
L 416 3381 
L 981 3381 
z
" transform="scale(0.015625)"/>
      </defs>
      <use xlink:href="#LiberationSans-53"/>
      <use xlink:href="#LiberationSans-70" transform="translate(66.699219 0)"/>
      <use xlink:href="#LiberationSans-65" transform="translate(122.314453 0)"/>
      <use xlink:href="#LiberationSans-65" transform="translate(177.929688 0)"/>
      <use xlink:href="#LiberationSans-64" transform="translate(233.544922 0)"/>
      <use xlink:href="#LiberationSans-75" transform="translate(289.160156 0)"/>
      <use xlink:href="#LiberationSans-70" transform="translate(344.775391 0)"/>
     </g>
    </g>
   </g>
   <g id="patch_3">
    <path d="M 52.526364 218.44751 
L 67.191161 218.44751 
L 67.191161 179.901313 
L 52.526364 179.901313 
z
" clip-path="url(#p57570ab036)" style="fill: #0000ff; opacity: 0.7"/>
   </g>
   <g id="patch_4">
    <path d="M 94.425783 218.44751 
L 109.09058 218.44751 
L 109.09058 162.416212 
L 94.425783 162.416212 
z
" clip-path="url(#p57570ab036)" style="fill: #0000ff; opacity: 0.7"/>
   </g>
   <g id="patch_5">
    <path d="M 136.325203 218.44751 
L 150.99 218.44751 
L 150.99 126.511363 
L 136.325203 126.511363 
z
" clip-path="url(#p57570ab036)" style="fill: #0000ff; opacity: 0.7"/>
   </g>
   <g id="patch_6">
    <path d="M 178.224623 218.44751 
L 192.88942 218.44751 
L 192.88942 87.429915 
L 178.224623 87.429915 
z
" clip-path="url(#p57570ab036)" style="fill: #0000ff; opacity: 0.7"/>
   </g>
   <g id="patch_7">
    <path d="M 220.124043 218.44751 
L 234.788839 218.44751 
L 234.788839 69.876425 
L 220.124043 69.876425 
z
" clip-path="url(#p57570ab036)" style="fill: #0000ff; opacity: 0.7"/>
   </g>
   <g id="patch_8">
    <path d="M 67.191161 218.44751 
L 81.855957 218.44751 
L 81.855957 131.10424 
L 67.191161 131.10424 
z
" clip-path="url(#p57570ab036)" style="fill: #008000; opacity: 0.7"/>
   </g>
   <g id="patch_9">
    <path d="M 109.09058 218.44751 
L 123.755377 218.44751 
L 123.755377 105.99669 
L 109.09058 105.99669 
z
" clip-path="url(#p57570ab036)" style="fill: #008000; opacity: 0.7"/>
   </g>
   <g id="patch_10">
    <path d="M 150.99 218.44751 
L 165.654797 218.44751 
L 165.654797 78.305446 
L 150.99 78.305446 
z
" clip-path="url(#p57570ab036)" style="fill: #008000; opacity: 0.7"/>
   </g>
   <g id="patch_11">
    <path d="M 192.88942 218.44751 
L 207.554217 218.44751 
L 207.554217 55.107024 
L 192.88942 55.107024 
z
" clip-path="url(#p57570ab036)" style="fill: #008000; opacity: 0.7"/>
   </g>
   <g id="patch_12">
    <path d="M 234.788839 218.44751 
L 249.453636 218.44751 
L 249.453636 59.69715 
L 234.788839 59.69715 
z
" clip-path="url(#p57570ab036)" style="fill: #008000; opacity: 0.7"/>
   </g>
   <g id="patch_13">
    <path d="M 42.68 218.44751 
L 42.68 46.94 
" style="fill: none; stroke: #cccccc; stroke-linejoin: miter; stroke-linecap: square"/>
   </g>
   <g id="patch_14">
    <path d="M 259.3 218.44751 
L 259.3 46.94 
" style="fill: none; stroke: #cccccc; stroke-linejoin: miter; stroke-linecap: square"/>
   </g>
   <g id="patch_15">
    <path d="M 42.68 218.44751 
L 259.3 218.44751 
" style="fill: none; stroke: #cccccc; stroke-linejoin: miter; stroke-linecap: square"/>
   </g>
   <g id="patch_16">
    <path d="M 42.68 46.94 
L 259.3 46.94 
" style="fill: none; stroke: #cccccc; stroke-linejoin: miter; stroke-linecap: square"/>
   </g>
   <g id="text_16">
    <!-- 93 -->
    <g style="fill: #262626" transform="translate(55.410012 175.241313) scale(0.08 -0.08)">
     <use xlink:href="#LiberationSans-39"/>
     <use xlink:href="#LiberationSans-33" transform="translate(55.615234 0)"/>
    </g>
   </g>
   <g id="text_17">
    <!-- 135 -->
    <g style="fill: #262626" transform="translate(95.085057 157.756212) scale(0.08 -0.08)">
     <use xlink:href="#LiberationSans-31"/>
     <use xlink:href="#LiberationSans-33" transform="translate(55.615234 0)"/>
     <use xlink:href="#LiberationSans-35" transform="translate(111.230469 0)"/>
    </g>
   </g>
   <g id="text_18">
    <!-- 222 -->
    <g style="fill: #262626" transform="translate(136.984477 121.851363) scale(0.08 -0.08)">
     <use xlink:href="#LiberationSans-32"/>
     <use xlink:href="#LiberationSans-32" transform="translate(55.615234 0)"/>
     <use xlink:href="#LiberationSans-32" transform="translate(111.230469 0)"/>
    </g>
   </g>
   <g id="text_19">
    <!-- 316 -->
    <g style="fill: #262626" transform="translate(178.883896 82.769915) scale(0.08 -0.08)">
     <use xlink:href="#LiberationSans-33"/>
     <use xlink:href="#LiberationSans-31" transform="translate(55.615234 0)"/>
     <use xlink:href="#LiberationSans-36" transform="translate(111.230469 0)"/>
    </g>
   </g>
   <g id="text_20">
    <!-- 358 -->
    <g style="fill: #262626" transform="translate(220.783316 65.216425) scale(0.08 -0.08)">
     <use xlink:href="#LiberationSans-33"/>
     <use xlink:href="#LiberationSans-35" transform="translate(55.615234 0)"/>
     <use xlink:href="#LiberationSans-38" transform="translate(111.230469 0)"/>
    </g>
   </g>
   <g id="text_21">
    <!-- 210 -->
    <g style="fill: #262626" transform="translate(67.850434 126.44424) scale(0.08 -0.08)">
     <use xlink:href="#LiberationSans-32"/>
     <use xlink:href="#LiberationSans-31" transform="translate(55.615234 0)"/>
     <use xlink:href="#LiberationSans-30" transform="translate(111.230469 0)"/>
    </g>
   </g>
   <g id="text_22">
    <!-- 271 -->
    <g style="fill: #262626" transform="translate(109.749854 101.33669) scale(0.08 -0.08)">
     <use xlink:href="#LiberationSans-32"/>
     <use xlink:href="#LiberationSans-37" transform="translate(55.615234 0)"/>
     <use xlink:href="#LiberationSans-31" transform="translate(111.230469 0)"/>
    </g>
   </g>
   <g id="text_23">
    <!-- 338 -->
    <g style="fill: #262626" transform="translate(151.649273 73.645446) scale(0.08 -0.08)">
     <use xlink:href="#LiberationSans-33"/>
     <use xlink:href="#LiberationSans-33" transform="translate(55.615234 0)"/>
     <use xlink:href="#LiberationSans-38" transform="translate(111.230469 0)"/>
    </g>
   </g>
   <g id="text_24">
    <!-- 394 -->
    <g style="fill: #262626" transform="translate(193.548693 50.447024) scale(0.08 -0.08)">
     <use xlink:href="#LiberationSans-33"/>
     <use xlink:href="#LiberationSans-39" transform="translate(55.615234 0)"/>
     <use xlink:href="#LiberationSans-34" transform="translate(111.230469 0)"/>
    </g>
   </g>
   <g id="text_25">
    <!-- 383 -->
    <g style="fill: #262626" transform="translate(235.448113 55.03715) scale(0.08 -0.08)">
     <use xlink:href="#LiberationSans-33"/>
     <use xlink:href="#LiberationSans-38" transform="translate(55.615234 0)"/>
     <use xlink:href="#LiberationSans-33" transform="translate(111.230469 0)"/>
    </g>
   </g>
   <g id="text_26">
    <!-- $K = 1000$ -->
    <g style="fill: #262626" transform="translate(127.068 40.94) scale(0.108 -0.108)">
     <defs>
      <path id="DejaVuSans-Oblique-4b" d="M 1081 4666 
L 1716 4666 
L 1331 2700 
L 3781 4666 
L 4622 4666 
L 1850 2438 
L 3878 0 
L 3109 0 
L 1247 2272 
L 806 0 
L 172 0 
L 1081 4666 
z
" transform="scale(0.015625)"/>
      <path id="DejaVuSans-3d" d="M 678 2906 
L 4684 2906 
L 4684 2381 
L 678 2381 
L 678 2906 
z
M 678 1631 
L 4684 1631 
L 4684 1100 
L 678 1100 
L 678 1631 
z
" transform="scale(0.015625)"/>
      <path id="DejaVuSans-31" d="M 794 531 
L 1825 531 
L 1825 4091 
L 703 3866 
L 703 4441 
L 1819 4666 
L 2450 4666 
L 2450 531 
L 3481 531 
L 3481 0 
L 794 0 
L 794 531 
z
" transform="scale(0.015625)"/>
      <path id="DejaVuSans-30" d="M 2034 4250 
Q 1547 4250 1301 3770 
Q 1056 3291 1056 2328 
Q 1056 1369 1301 889 
Q 1547 409 2034 409 
Q 2525 409 2770 889 
Q 3016 1369 3016 2328 
Q 3016 3291 2770 3770 
Q 2525 4250 2034 4250 
z
M 2034 4750 
Q 2819 4750 3233 4129 
Q 3647 3509 3647 2328 
Q 3647 1150 3233 529 
Q 2819 -91 2034 -91 
Q 1250 -91 836 529 
Q 422 1150 422 2328 
Q 422 3509 836 4129 
Q 1250 4750 2034 4750 
z
" transform="scale(0.015625)"/>
     </defs>
     <use xlink:href="#DejaVuSans-Oblique-4b" transform="translate(0 0.78125)"/>
     <use xlink:href="#DejaVuSans-3d" transform="translate(85.058594 0.78125)"/>
     <use xlink:href="#DejaVuSans-31" transform="translate(188.330078 0.78125)"/>
     <use xlink:href="#DejaVuSans-30" transform="translate(251.953125 0.78125)"/>
     <use xlink:href="#DejaVuSans-30" transform="translate(315.576172 0.78125)"/>
     <use xlink:href="#DejaVuSans-30" transform="translate(379.199219 0.78125)"/>
    </g>
   </g>
  </g>
  <g id="axes_2">
   <g id="patch_17">
    <path d="M 269.02 218.44751 
L 485.64 218.44751 
L 485.64 46.94 
L 269.02 46.94 
z
" style="fill: #ffffff"/>
   </g>
   <g id="matplotlib.axis_3">
    <g id="xtick_6">
     <g id="line2d_29">
      <path d="M 293.531161 218.44751 
L 293.531161 46.94 
" clip-path="url(#p652bc35afb)" style="fill: none; stroke: #cccccc; stroke-width: 0.8; stroke-linecap: round"/>
     </g>
     <g id="line2d_30"/>
     <g id="text_27">
      <!-- 131072 -->
      <g style="fill: #262626" transform="translate(284.559964 247.793147) rotate(-45) scale(0.09 -0.09)">
       <use xlink:href="#LiberationSans-31"/>
       <use xlink:href="#LiberationSans-33" transform="translate(55.615234 0)"/>
       <use xlink:href="#LiberationSans-31" transform="translate(111.230469 0)"/>
       <use xlink:href="#LiberationSans-30" transform="translate(166.845703 0)"/>
       <use xlink:href="#LiberationSans-37" transform="translate(222.460938 0)"/>
       <use xlink:href="#LiberationSans-32" transform="translate(278.076172 0)"/>
      </g>
     </g>
    </g>
    <g id="xtick_7">
     <g id="line2d_31">
      <path d="M 335.43058 218.44751 
L 335.43058 46.94 
" clip-path="url(#p652bc35afb)" style="fill: none; stroke: #cccccc; stroke-width: 0.8; stroke-linecap: round"/>
     </g>
     <g id="line2d_32"/>
     <g id="text_28">
      <!-- 262144 -->
      <g style="fill: #262626" transform="translate(326.459384 247.793147) rotate(-45) scale(0.09 -0.09)">
       <use xlink:href="#LiberationSans-32"/>
       <use xlink:href="#LiberationSans-36" transform="translate(55.615234 0)"/>
       <use xlink:href="#LiberationSans-32" transform="translate(111.230469 0)"/>
       <use xlink:href="#LiberationSans-31" transform="translate(166.845703 0)"/>
       <use xlink:href="#LiberationSans-34" transform="translate(222.460938 0)"/>
       <use xlink:href="#LiberationSans-34" transform="translate(278.076172 0)"/>
      </g>
     </g>
    </g>
    <g id="xtick_8">
     <g id="line2d_33">
      <path d="M 377.33 218.44751 
L 377.33 46.94 
" clip-path="url(#p652bc35afb)" style="fill: none; stroke: #cccccc; stroke-width: 0.8; stroke-linecap: round"/>
     </g>
     <g id="line2d_34"/>
     <g id="text_29">
      <!-- 524288 -->
      <g style="fill: #262626" transform="translate(368.358804 247.793147) rotate(-45) scale(0.09 -0.09)">
       <use xlink:href="#LiberationSans-35"/>
       <use xlink:href="#LiberationSans-32" transform="translate(55.615234 0)"/>
       <use xlink:href="#LiberationSans-34" transform="translate(111.230469 0)"/>
       <use xlink:href="#LiberationSans-32" transform="translate(166.845703 0)"/>
       <use xlink:href="#LiberationSans-38" transform="translate(222.460938 0)"/>
       <use xlink:href="#LiberationSans-38" transform="translate(278.076172 0)"/>
      </g>
     </g>
    </g>
    <g id="xtick_9">
     <g id="line2d_35">
      <path d="M 419.22942 218.44751 
L 419.22942 46.94 
" clip-path="url(#p652bc35afb)" style="fill: none; stroke: #cccccc; stroke-width: 0.8; stroke-linecap: round"/>
     </g>
     <g id="line2d_36"/>
     <g id="text_30">
      <!-- 1048576 -->
      <g style="fill: #262626" transform="translate(408.488744 251.332105) rotate(-45) scale(0.09 -0.09)">
       <use xlink:href="#LiberationSans-31"/>
       <use xlink:href="#LiberationSans-30" transform="translate(55.615234 0)"/>
       <use xlink:href="#LiberationSans-34" transform="translate(111.230469 0)"/>
       <use xlink:href="#LiberationSans-38" transform="translate(166.845703 0)"/>
       <use xlink:href="#LiberationSans-35" transform="translate(222.460938 0)"/>
       <use xlink:href="#LiberationSans-37" transform="translate(278.076172 0)"/>
       <use xlink:href="#LiberationSans-36" transform="translate(333.691406 0)"/>
      </g>
     </g>
    </g>
    <g id="xtick_10">
     <g id="line2d_37">
      <path d="M 461.128839 218.44751 
L 461.128839 46.94 
" clip-path="url(#p652bc35afb)" style="fill: none; stroke: #cccccc; stroke-width: 0.8; stroke-linecap: round"/>
     </g>
     <g id="line2d_38"/>
     <g id="text_31">
      <!-- 2097152 -->
      <g style="fill: #262626" transform="translate(450.388164 251.332105) rotate(-45) scale(0.09 -0.09)">
       <use xlink:href="#LiberationSans-32"/>
       <use xlink:href="#LiberationSans-30" transform="translate(55.615234 0)"/>
       <use xlink:href="#LiberationSans-39" transform="translate(111.230469 0)"/>
       <use xlink:href="#LiberationSans-37" transform="translate(166.845703 0)"/>
       <use xlink:href="#LiberationSans-31" transform="translate(222.460938 0)"/>
       <use xlink:href="#LiberationSans-35" transform="translate(278.076172 0)"/>
       <use xlink:href="#LiberationSans-32" transform="translate(333.691406 0)"/>
      </g>
     </g>
    </g>
    <g id="text_32">
     <!-- Number of inputs (N) -->
     <g style="fill: #262626" transform="translate(335.569297 263.174815) scale(0.09 -0.09)">
      <defs>
       <path id="LiberationSans-4e" d="M 3381 0 
L 1025 3750 
L 1041 3447 
L 1056 2925 
L 1056 0 
L 525 0 
L 525 4403 
L 1219 4403 
L 3600 628 
Q 3563 1241 3563 1516 
L 3563 4403 
L 4100 4403 
L 4100 0 
L 3381 0 
z
" transform="scale(0.015625)"/>
       <path id="LiberationSans-6d" d="M 2400 0 
L 2400 2144 
Q 2400 2634 2265 2821 
Q 2131 3009 1781 3009 
Q 1422 3009 1212 2734 
Q 1003 2459 1003 1959 
L 1003 0 
L 444 0 
L 444 2659 
Q 444 3250 425 3381 
L 956 3381 
Q 959 3366 962 3297 
Q 966 3228 970 3139 
Q 975 3050 981 2803 
L 991 2803 
Q 1172 3163 1406 3303 
Q 1641 3444 1978 3444 
Q 2363 3444 2586 3291 
Q 2809 3138 2897 2803 
L 2906 2803 
Q 3081 3144 3329 3294 
Q 3578 3444 3931 3444 
Q 4444 3444 4676 3166 
Q 4909 2888 4909 2253 
L 4909 0 
L 4353 0 
L 4353 2144 
Q 4353 2634 4218 2821 
Q 4084 3009 3734 3009 
Q 3366 3009 3161 2736 
Q 2956 2463 2956 1959 
L 2956 0 
L 2400 0 
z
" transform="scale(0.015625)"/>
       <path id="LiberationSans-62" d="M 3291 1706 
Q 3291 -63 2047 -63 
Q 1663 -63 1408 76 
Q 1153 216 994 525 
L 988 525 
Q 988 428 975 229 
Q 963 31 956 0 
L 413 0 
Q 431 169 431 697 
L 431 4638 
L 994 4638 
L 994 3316 
Q 994 3113 981 2838 
L 994 2838 
Q 1150 3163 1408 3303 
Q 1666 3444 2047 3444 
Q 2688 3444 2989 3012 
Q 3291 2581 3291 1706 
z
M 2700 1688 
Q 2700 2397 2512 2703 
Q 2325 3009 1903 3009 
Q 1428 3009 1211 2684 
Q 994 2359 994 1653 
Q 994 988 1206 670 
Q 1419 353 1897 353 
Q 2322 353 2511 667 
Q 2700 981 2700 1688 
z
" transform="scale(0.015625)"/>
       <path id="LiberationSans-72" d="M 444 0 
L 444 2594 
Q 444 2950 425 3381 
L 956 3381 
Q 981 2806 981 2691 
L 994 2691 
Q 1128 3125 1303 3284 
Q 1478 3444 1797 3444 
Q 1909 3444 2025 3413 
L 2025 2897 
Q 1913 2928 1725 2928 
Q 1375 2928 1190 2626 
Q 1006 2325 1006 1763 
L 1006 0 
L 444 0 
z
" transform="scale(0.015625)"/>
       <path id="LiberationSans-20" transform="scale(0.015625)"/>
       <path id="LiberationSans-6f" d="M 3291 1694 
Q 3291 806 2900 371 
Q 2509 -63 1766 -63 
Q 1025 -63 647 389 
Q 269 841 269 1694 
Q 269 3444 1784 3444 
Q 2559 3444 2925 3017 
Q 3291 2591 3291 1694 
z
M 2700 1694 
Q 2700 2394 2492 2711 
Q 2284 3028 1794 3028 
Q 1300 3028 1079 2704 
Q 859 2381 859 1694 
Q 859 1025 1076 689 
Q 1294 353 1759 353 
Q 2266 353 2483 678 
Q 2700 1003 2700 1694 
z
" transform="scale(0.015625)"/>
       <path id="LiberationSans-66" d="M 1128 2972 
L 1128 0 
L 566 0 
L 566 2972 
L 91 2972 
L 91 3381 
L 566 3381 
L 566 3763 
Q 566 4225 769 4428 
Q 972 4631 1391 4631 
Q 1625 4631 1788 4594 
L 1788 4166 
Q 1647 4191 1538 4191 
Q 1322 4191 1225 4081 
Q 1128 3972 1128 3684 
L 1128 3381 
L 1788 3381 
L 1788 2972 
L 1128 2972 
z
" transform="scale(0.015625)"/>
       <path id="LiberationSans-69" d="M 428 4100 
L 428 4638 
L 991 4638 
L 991 4100 
L 428 4100 
z
M 428 0 
L 428 3381 
L 991 3381 
L 991 0 
L 428 0 
z
" transform="scale(0.015625)"/>
       <path id="LiberationSans-6e" d="M 2578 0 
L 2578 2144 
Q 2578 2478 2512 2662 
Q 2447 2847 2303 2928 
Q 2159 3009 1881 3009 
Q 1475 3009 1240 2731 
Q 1006 2453 1006 1959 
L 1006 0 
L 444 0 
L 444 2659 
Q 444 3250 425 3381 
L 956 3381 
Q 959 3366 962 3297 
Q 966 3228 970 3139 
Q 975 3050 981 2803 
L 991 2803 
Q 1184 3153 1439 3298 
Q 1694 3444 2072 3444 
Q 2628 3444 2886 3167 
Q 3144 2891 3144 2253 
L 3144 0 
L 2578 0 
z
" transform="scale(0.015625)"/>
       <path id="LiberationSans-74" d="M 1731 25 
Q 1453 -50 1163 -50 
Q 488 -50 488 716 
L 488 2972 
L 97 2972 
L 97 3381 
L 509 3381 
L 675 4138 
L 1050 4138 
L 1050 3381 
L 1675 3381 
L 1675 2972 
L 1050 2972 
L 1050 838 
Q 1050 594 1129 495 
Q 1209 397 1406 397 
Q 1519 397 1731 441 
L 1731 25 
z
" transform="scale(0.015625)"/>
       <path id="LiberationSans-73" d="M 2969 934 
Q 2969 456 2608 196 
Q 2247 -63 1597 -63 
Q 966 -63 623 145 
Q 281 353 178 794 
L 675 891 
Q 747 619 972 492 
Q 1197 366 1597 366 
Q 2025 366 2223 497 
Q 2422 628 2422 891 
Q 2422 1091 2284 1216 
Q 2147 1341 1841 1422 
L 1438 1528 
Q 953 1653 748 1773 
Q 544 1894 428 2066 
Q 313 2238 313 2488 
Q 313 2950 642 3192 
Q 972 3434 1603 3434 
Q 2163 3434 2492 3237 
Q 2822 3041 2909 2606 
L 2403 2544 
Q 2356 2769 2151 2889 
Q 1947 3009 1603 3009 
Q 1222 3009 1040 2893 
Q 859 2778 859 2544 
Q 859 2400 934 2306 
Q 1009 2213 1156 2147 
Q 1303 2081 1775 1966 
Q 2222 1853 2419 1758 
Q 2616 1663 2730 1547 
Q 2844 1431 2906 1279 
Q 2969 1128 2969 934 
z
" transform="scale(0.015625)"/>
       <path id="LiberationSans-28" d="M 397 1663 
Q 397 2566 680 3284 
Q 963 4003 1550 4638 
L 2094 4638 
Q 1509 3988 1236 3256 
Q 963 2525 963 1656 
Q 963 791 1233 62 
Q 1503 -666 2094 -1325 
L 1550 -1325 
Q 959 -688 678 32 
Q 397 753 397 1650 
L 397 1663 
z
" transform="scale(0.015625)"/>
       <path id="LiberationSans-29" d="M 1734 1650 
Q 1734 747 1451 28 
Q 1169 -691 581 -1325 
L 38 -1325 
Q 625 -669 897 57 
Q 1169 784 1169 1656 
Q 1169 2528 895 3256 
Q 622 3984 38 4638 
L 581 4638 
Q 1172 4000 1453 3279 
Q 1734 2559 1734 1663 
L 1734 1650 
z
" transform="scale(0.015625)"/>
      </defs>
      <use xlink:href="#LiberationSans-4e"/>
      <use xlink:href="#LiberationSans-75" transform="translate(72.216797 0)"/>
      <use xlink:href="#LiberationSans-6d" transform="translate(127.832031 0)"/>
      <use xlink:href="#LiberationSans-62" transform="translate(211.132812 0)"/>
      <use xlink:href="#LiberationSans-65" transform="translate(266.748047 0)"/>
      <use xlink:href="#LiberationSans-72" transform="translate(322.363281 0)"/>
      <use xlink:href="#LiberationSans-20" transform="translate(355.664062 0)"/>
      <use xlink:href="#LiberationSans-6f" transform="translate(383.447266 0)"/>
      <use xlink:href="#LiberationSans-66" transform="translate(439.0625 0)"/>
      <use xlink:href="#LiberationSans-20" transform="translate(466.845703 0)"/>
      <use xlink:href="#LiberationSans-69" transform="translate(494.628906 0)"/>
      <use xlink:href="#LiberationSans-6e" transform="translate(516.845703 0)"/>
      <use xlink:href="#LiberationSans-70" transform="translate(572.460938 0)"/>
      <use xlink:href="#LiberationSans-75" transform="translate(628.076172 0)"/>
      <use xlink:href="#LiberationSans-74" transform="translate(683.691406 0)"/>
      <use xlink:href="#LiberationSans-73" transform="translate(711.474609 0)"/>
      <use xlink:href="#LiberationSans-20" transform="translate(761.474609 0)"/>
      <use xlink:href="#LiberationSans-28" transform="translate(789.257812 0)"/>
      <use xlink:href="#LiberationSans-4e" transform="translate(822.558594 0)"/>
      <use xlink:href="#LiberationSans-29" transform="translate(894.775391 0)"/>
     </g>
    </g>
   </g>
   <g id="matplotlib.axis_4">
    <g id="ytick_10">
     <g id="line2d_39">
      <path d="M 269.02 218.44751 
L 485.64 218.44751 
" clip-path="url(#p652bc35afb)" style="fill: none; stroke-dasharray: 2.96,1.28; stroke-dashoffset: 0; stroke: #cccccc; stroke-opacity: 0.7; stroke-width: 0.8"/>
     </g>
     <g id="line2d_40"/>
    </g>
    <g id="ytick_11">
     <g id="line2d_41">
      <path d="M 269.02 197.699938 
L 485.64 197.699938 
" clip-path="url(#p652bc35afb)" style="fill: none; stroke-dasharray: 2.96,1.28; stroke-dashoffset: 0; stroke: #cccccc; stroke-opacity: 0.7; stroke-width: 0.8"/>
     </g>
     <g id="line2d_42"/>
    </g>
    <g id="ytick_12">
     <g id="line2d_43">
      <path d="M 269.02 176.952366 
L 485.64 176.952366 
" clip-path="url(#p652bc35afb)" style="fill: none; stroke-dasharray: 2.96,1.28; stroke-dashoffset: 0; stroke: #cccccc; stroke-opacity: 0.7; stroke-width: 0.8"/>
     </g>
     <g id="line2d_44"/>
    </g>
    <g id="ytick_13">
     <g id="line2d_45">
      <path d="M 269.02 156.204795 
L 485.64 156.204795 
" clip-path="url(#p652bc35afb)" style="fill: none; stroke-dasharray: 2.96,1.28; stroke-dashoffset: 0; stroke: #cccccc; stroke-opacity: 0.7; stroke-width: 0.8"/>
     </g>
     <g id="line2d_46"/>
    </g>
    <g id="ytick_14">
     <g id="line2d_47">
      <path d="M 269.02 135.457223 
L 485.64 135.457223 
" clip-path="url(#p652bc35afb)" style="fill: none; stroke-dasharray: 2.96,1.28; stroke-dashoffset: 0; stroke: #cccccc; stroke-opacity: 0.7; stroke-width: 0.8"/>
     </g>
     <g id="line2d_48"/>
    </g>
    <g id="ytick_15">
     <g id="line2d_49">
      <path d="M 269.02 114.709651 
L 485.64 114.709651 
" clip-path="url(#p652bc35afb)" style="fill: none; stroke-dasharray: 2.96,1.28; stroke-dashoffset: 0; stroke: #cccccc; stroke-opacity: 0.7; stroke-width: 0.8"/>
     </g>
     <g id="line2d_50"/>
    </g>
    <g id="ytick_16">
     <g id="line2d_51">
      <path d="M 269.02 93.962079 
L 485.64 93.962079 
" clip-path="url(#p652bc35afb)" style="fill: none; stroke-dasharray: 2.96,1.28; stroke-dashoffset: 0; stroke: #cccccc; stroke-opacity: 0.7; stroke-width: 0.8"/>
     </g>
     <g id="line2d_52"/>
    </g>
    <g id="ytick_17">
     <g id="line2d_53">
      <path d="M 269.02 73.214508 
L 485.64 73.214508 
" clip-path="url(#p652bc35afb)" style="fill: none; stroke-dasharray: 2.96,1.28; stroke-dashoffset: 0; stroke: #cccccc; stroke-opacity: 0.7; stroke-width: 0.8"/>
     </g>
     <g id="line2d_54"/>
    </g>
    <g id="ytick_18">
     <g id="line2d_55">
      <path d="M 269.02 52.466936 
L 485.64 52.466936 
" clip-path="url(#p652bc35afb)" style="fill: none; stroke-dasharray: 2.96,1.28; stroke-dashoffset: 0; stroke: #cccccc; stroke-opacity: 0.7; stroke-width: 0.8"/>
     </g>
     <g id="line2d_56"/>
    </g>
   </g>
   <g id="patch_18">
    <path d="M 278.866364 218.44751 
L 293.531161 218.44751 
L 293.531161 164.297769 
L 278.866364 164.297769 
z
" clip-path="url(#p652bc35afb)" style="fill: #0000ff; opacity: 0.7"/>
   </g>
   <g id="patch_19">
    <path d="M 320.765783 218.44751 
L 335.43058 218.44751 
L 335.43058 130.80411 
L 320.765783 130.80411 
z
" clip-path="url(#p652bc35afb)" style="fill: #0000ff; opacity: 0.7"/>
   </g>
   <g id="patch_20">
    <path d="M 362.665203 218.44751 
L 377.33 218.44751 
L 377.33 95.63372 
L 362.665203 95.63372 
z
" clip-path="url(#p652bc35afb)" style="fill: #0000ff; opacity: 0.7"/>
   </g>
   <g id="patch_21">
    <path d="M 404.564623 218.44751 
L 419.22942 218.44751 
L 419.22942 88.211824 
L 404.564623 88.211824 
z
" clip-path="url(#p652bc35afb)" style="fill: #0000ff; opacity: 0.7"/>
   </g>
   <g id="patch_22">
    <path d="M 446.464043 218.44751 
L 461.128839 218.44751 
L 461.128839 70.978944 
L 446.464043 70.978944 
z
" clip-path="url(#p652bc35afb)" style="fill: #0000ff; opacity: 0.7"/>
   </g>
   <g id="patch_23">
    <path d="M 293.531161 218.44751 
L 308.195957 218.44751 
L 308.195957 123.227951 
L 293.531161 123.227951 
z
" clip-path="url(#p652bc35afb)" style="fill: #008000; opacity: 0.7"/>
   </g>
   <g id="patch_24">
    <path d="M 335.43058 218.44751 
L 350.095377 218.44751 
L 350.095377 93.739628 
L 335.43058 93.739628 
z
" clip-path="url(#p652bc35afb)" style="fill: #008000; opacity: 0.7"/>
   </g>
   <g id="patch_25">
    <path d="M 377.33 218.44751 
L 391.994797 218.44751 
L 391.994797 72.228182 
L 377.33 72.228182 
z
" clip-path="url(#p652bc35afb)" style="fill: #008000; opacity: 0.7"/>
   </g>
   <g id="patch_26">
    <path d="M 419.22942 218.44751 
L 433.894217 218.44751 
L 433.894217 83.095368 
L 419.22942 83.095368 
z
" clip-path="url(#p652bc35afb)" style="fill: #008000; opacity: 0.7"/>
   </g>
   <g id="patch_27">
    <path d="M 461.128839 218.44751 
L 475.793636 218.44751 
L 475.793636 79.553571 
L 461.128839 79.553571 
z
" clip-path="url(#p652bc35afb)" style="fill: #008000; opacity: 0.7"/>
   </g>
   <g id="patch_28">
    <path d="M 269.02 218.44751 
L 269.02 46.94 
" style="fill: none; stroke: #cccccc; stroke-linejoin: miter; stroke-linecap: square"/>
   </g>
   <g id="patch_29">
    <path d="M 485.64 218.44751 
L 485.64 46.94 
" style="fill: none; stroke: #cccccc; stroke-linejoin: miter; stroke-linecap: square"/>
   </g>
   <g id="patch_30">
    <path d="M 269.02 218.44751 
L 485.64 218.44751 
" style="fill: none; stroke: #cccccc; stroke-linejoin: miter; stroke-linecap: square"/>
   </g>
   <g id="patch_31">
    <path d="M 269.02 46.94 
L 485.64 46.94 
" style="fill: none; stroke: #cccccc; stroke-linejoin: miter; stroke-linecap: square"/>
   </g>
   <g id="text_33">
    <!-- 130 -->
    <g style="fill: #262626" transform="translate(279.525637 159.637769) scale(0.08 -0.08)">
     <use xlink:href="#LiberationSans-31"/>
     <use xlink:href="#LiberationSans-33" transform="translate(55.615234 0)"/>
     <use xlink:href="#LiberationSans-30" transform="translate(111.230469 0)"/>
    </g>
   </g>
   <g id="text_34">
    <!-- 211 -->
    <g style="fill: #262626" transform="translate(321.720057 126.14411) scale(0.08 -0.08)">
     <use xlink:href="#LiberationSans-32"/>
     <use xlink:href="#LiberationSans-31" transform="translate(55.615234 0)"/>
     <use xlink:href="#LiberationSans-31" transform="translate(103.855469 0)"/>
    </g>
   </g>
   <g id="text_35">
    <!-- 296 -->
    <g style="fill: #262626" transform="translate(363.324477 90.97372) scale(0.08 -0.08)">
     <use xlink:href="#LiberationSans-32"/>
     <use xlink:href="#LiberationSans-39" transform="translate(55.615234 0)"/>
     <use xlink:href="#LiberationSans-36" transform="translate(111.230469 0)"/>
    </g>
   </g>
   <g id="text_36">
    <!-- 314 -->
    <g style="fill: #262626" transform="translate(405.223896 83.551824) scale(0.08 -0.08)">
     <use xlink:href="#LiberationSans-33"/>
     <use xlink:href="#LiberationSans-31" transform="translate(55.615234 0)"/>
     <use xlink:href="#LiberationSans-34" transform="translate(111.230469 0)"/>
    </g>
   </g>
   <g id="text_37">
    <!-- 355 -->
    <g style="fill: #262626" transform="translate(447.123316 66.318944) scale(0.08 -0.08)">
     <use xlink:href="#LiberationSans-33"/>
     <use xlink:href="#LiberationSans-35" transform="translate(55.615234 0)"/>
     <use xlink:href="#LiberationSans-35" transform="translate(111.230469 0)"/>
    </g>
   </g>
   <g id="text_38">
    <!-- 229 -->
    <g style="fill: #262626" transform="translate(294.190434 118.567951) scale(0.08 -0.08)">
     <use xlink:href="#LiberationSans-32"/>
     <use xlink:href="#LiberationSans-32" transform="translate(55.615234 0)"/>
     <use xlink:href="#LiberationSans-39" transform="translate(111.230469 0)"/>
    </g>
   </g>
   <g id="text_39">
    <!-- 301 -->
    <g style="fill: #262626" transform="translate(336.089854 89.079628) scale(0.08 -0.08)">
     <use xlink:href="#LiberationSans-33"/>
     <use xlink:href="#LiberationSans-30" transform="translate(55.615234 0)"/>
     <use xlink:href="#LiberationSans-31" transform="translate(111.230469 0)"/>
    </g>
   </g>
   <g id="text_40">
    <!-- 352 -->
    <g style="fill: #262626" transform="translate(377.989273 67.568182) scale(0.08 -0.08)">
     <use xlink:href="#LiberationSans-33"/>
     <use xlink:href="#LiberationSans-35" transform="translate(55.615234 0)"/>
     <use xlink:href="#LiberationSans-32" transform="translate(111.230469 0)"/>
    </g>
   </g>
   <g id="text_41">
    <!-- 326 -->
    <g style="fill: #262626" transform="translate(419.888693 78.435368) scale(0.08 -0.08)">
     <use xlink:href="#LiberationSans-33"/>
     <use xlink:href="#LiberationSans-32" transform="translate(55.615234 0)"/>
     <use xlink:href="#LiberationSans-36" transform="translate(111.230469 0)"/>
    </g>
   </g>
   <g id="text_42">
    <!-- 335 -->
    <g style="fill: #262626" transform="translate(461.788113 74.893571) scale(0.08 -0.08)">
     <use xlink:href="#LiberationSans-33"/>
     <use xlink:href="#LiberationSans-33" transform="translate(55.615234 0)"/>
     <use xlink:href="#LiberationSans-35" transform="translate(111.230469 0)"/>
    </g>
   </g>
   <g id="text_43">
    <!-- $K = 2000$ -->
    <g style="fill: #262626" transform="translate(353.408 40.94) scale(0.108 -0.108)">
     <defs>
      <path id="DejaVuSans-32" d="M 1228 531 
L 3431 531 
L 3431 0 
L 469 0 
L 469 531 
Q 828 903 1448 1529 
Q 2069 2156 2228 2338 
Q 2531 2678 2651 2914 
Q 2772 3150 2772 3378 
Q 2772 3750 2511 3984 
Q 2250 4219 1831 4219 
Q 1534 4219 1204 4116 
Q 875 4013 500 3803 
L 500 4441 
Q 881 4594 1212 4672 
Q 1544 4750 1819 4750 
Q 2544 4750 2975 4387 
Q 3406 4025 3406 3419 
Q 3406 3131 3298 2873 
Q 3191 2616 2906 2266 
Q 2828 2175 2409 1742 
Q 1991 1309 1228 531 
z
" transform="scale(0.015625)"/>
     </defs>
     <use xlink:href="#DejaVuSans-Oblique-4b" transform="translate(0 0.78125)"/>
     <use xlink:href="#DejaVuSans-3d" transform="translate(85.058594 0.78125)"/>
     <use xlink:href="#DejaVuSans-32" transform="translate(188.330078 0.78125)"/>
     <use xlink:href="#DejaVuSans-30" transform="translate(251.953125 0.78125)"/>
     <use xlink:href="#DejaVuSans-30" transform="translate(315.576172 0.78125)"/>
     <use xlink:href="#DejaVuSans-30" transform="translate(379.199219 0.78125)"/>
    </g>
   </g>
  </g>
  <g id="axes_3">
   <g id="patch_32">
    <path d="M 495.36 218.44751 
L 711.98 218.44751 
L 711.98 46.94 
L 495.36 46.94 
z
" style="fill: #ffffff"/>
   </g>
   <g id="matplotlib.axis_5">
    <g id="xtick_11">
     <g id="line2d_57">
      <path d="M 519.871161 218.44751 
L 519.871161 46.94 
" clip-path="url(#p007684c8dd)" style="fill: none; stroke: #cccccc; stroke-width: 0.8; stroke-linecap: round"/>
     </g>
     <g id="line2d_58"/>
     <g id="text_44">
      <!-- 131072 -->
      <g style="fill: #262626" transform="translate(510.899964 247.793147) rotate(-45) scale(0.09 -0.09)">
       <use xlink:href="#LiberationSans-31"/>
       <use xlink:href="#LiberationSans-33" transform="translate(55.615234 0)"/>
       <use xlink:href="#LiberationSans-31" transform="translate(111.230469 0)"/>
       <use xlink:href="#LiberationSans-30" transform="translate(166.845703 0)"/>
       <use xlink:href="#LiberationSans-37" transform="translate(222.460938 0)"/>
       <use xlink:href="#LiberationSans-32" transform="translate(278.076172 0)"/>
      </g>
     </g>
    </g>
    <g id="xtick_12">
     <g id="line2d_59">
      <path d="M 561.77058 218.44751 
L 561.77058 46.94 
" clip-path="url(#p007684c8dd)" style="fill: none; stroke: #cccccc; stroke-width: 0.8; stroke-linecap: round"/>
     </g>
     <g id="line2d_60"/>
     <g id="text_45">
      <!-- 262144 -->
      <g style="fill: #262626" transform="translate(552.799384 247.793147) rotate(-45) scale(0.09 -0.09)">
       <use xlink:href="#LiberationSans-32"/>
       <use xlink:href="#LiberationSans-36" transform="translate(55.615234 0)"/>
       <use xlink:href="#LiberationSans-32" transform="translate(111.230469 0)"/>
       <use xlink:href="#LiberationSans-31" transform="translate(166.845703 0)"/>
       <use xlink:href="#LiberationSans-34" transform="translate(222.460938 0)"/>
       <use xlink:href="#LiberationSans-34" transform="translate(278.076172 0)"/>
      </g>
     </g>
    </g>
    <g id="xtick_13">
     <g id="line2d_61">
      <path d="M 603.67 218.44751 
L 603.67 46.94 
" clip-path="url(#p007684c8dd)" style="fill: none; stroke: #cccccc; stroke-width: 0.8; stroke-linecap: round"/>
     </g>
     <g id="line2d_62"/>
     <g id="text_46">
      <!-- 524288 -->
      <g style="fill: #262626" transform="translate(594.698804 247.793147) rotate(-45) scale(0.09 -0.09)">
       <use xlink:href="#LiberationSans-35"/>
       <use xlink:href="#LiberationSans-32" transform="translate(55.615234 0)"/>
       <use xlink:href="#LiberationSans-34" transform="translate(111.230469 0)"/>
       <use xlink:href="#LiberationSans-32" transform="translate(166.845703 0)"/>
       <use xlink:href="#LiberationSans-38" transform="translate(222.460938 0)"/>
       <use xlink:href="#LiberationSans-38" transform="translate(278.076172 0)"/>
      </g>
     </g>
    </g>
    <g id="xtick_14">
     <g id="line2d_63">
      <path d="M 645.56942 218.44751 
L 645.56942 46.94 
" clip-path="url(#p007684c8dd)" style="fill: none; stroke: #cccccc; stroke-width: 0.8; stroke-linecap: round"/>
     </g>
     <g id="line2d_64"/>
     <g id="text_47">
      <!-- 1048576 -->
      <g style="fill: #262626" transform="translate(634.828744 251.332105) rotate(-45) scale(0.09 -0.09)">
       <use xlink:href="#LiberationSans-31"/>
       <use xlink:href="#LiberationSans-30" transform="translate(55.615234 0)"/>
       <use xlink:href="#LiberationSans-34" transform="translate(111.230469 0)"/>
       <use xlink:href="#LiberationSans-38" transform="translate(166.845703 0)"/>
       <use xlink:href="#LiberationSans-35" transform="translate(222.460938 0)"/>
       <use xlink:href="#LiberationSans-37" transform="translate(278.076172 0)"/>
       <use xlink:href="#LiberationSans-36" transform="translate(333.691406 0)"/>
      </g>
     </g>
    </g>
    <g id="xtick_15">
     <g id="line2d_65">
      <path d="M 687.468839 218.44751 
L 687.468839 46.94 
" clip-path="url(#p007684c8dd)" style="fill: none; stroke: #cccccc; stroke-width: 0.8; stroke-linecap: round"/>
     </g>
     <g id="line2d_66"/>
     <g id="text_48">
      <!-- 2097152 -->
      <g style="fill: #262626" transform="translate(676.728164 251.332105) rotate(-45) scale(0.09 -0.09)">
       <use xlink:href="#LiberationSans-32"/>
       <use xlink:href="#LiberationSans-30" transform="translate(55.615234 0)"/>
       <use xlink:href="#LiberationSans-39" transform="translate(111.230469 0)"/>
       <use xlink:href="#LiberationSans-37" transform="translate(166.845703 0)"/>
       <use xlink:href="#LiberationSans-31" transform="translate(222.460938 0)"/>
       <use xlink:href="#LiberationSans-35" transform="translate(278.076172 0)"/>
       <use xlink:href="#LiberationSans-32" transform="translate(333.691406 0)"/>
      </g>
     </g>
    </g>
   </g>
   <g id="matplotlib.axis_6">
    <g id="ytick_19">
     <g id="line2d_67">
      <path d="M 495.36 218.44751 
L 711.98 218.44751 
" clip-path="url(#p007684c8dd)" style="fill: none; stroke-dasharray: 2.96,1.28; stroke-dashoffset: 0; stroke: #cccccc; stroke-opacity: 0.7; stroke-width: 0.8"/>
     </g>
     <g id="line2d_68"/>
    </g>
    <g id="ytick_20">
     <g id="line2d_69">
      <path d="M 495.36 197.699938 
L 711.98 197.699938 
" clip-path="url(#p007684c8dd)" style="fill: none; stroke-dasharray: 2.96,1.28; stroke-dashoffset: 0; stroke: #cccccc; stroke-opacity: 0.7; stroke-width: 0.8"/>
     </g>
     <g id="line2d_70"/>
    </g>
    <g id="ytick_21">
     <g id="line2d_71">
      <path d="M 495.36 176.952366 
L 711.98 176.952366 
" clip-path="url(#p007684c8dd)" style="fill: none; stroke-dasharray: 2.96,1.28; stroke-dashoffset: 0; stroke: #cccccc; stroke-opacity: 0.7; stroke-width: 0.8"/>
     </g>
     <g id="line2d_72"/>
    </g>
    <g id="ytick_22">
     <g id="line2d_73">
      <path d="M 495.36 156.204795 
L 711.98 156.204795 
" clip-path="url(#p007684c8dd)" style="fill: none; stroke-dasharray: 2.96,1.28; stroke-dashoffset: 0; stroke: #cccccc; stroke-opacity: 0.7; stroke-width: 0.8"/>
     </g>
     <g id="line2d_74"/>
    </g>
    <g id="ytick_23">
     <g id="line2d_75">
      <path d="M 495.36 135.457223 
L 711.98 135.457223 
" clip-path="url(#p007684c8dd)" style="fill: none; stroke-dasharray: 2.96,1.28; stroke-dashoffset: 0; stroke: #cccccc; stroke-opacity: 0.7; stroke-width: 0.8"/>
     </g>
     <g id="line2d_76"/>
    </g>
    <g id="ytick_24">
     <g id="line2d_77">
      <path d="M 495.36 114.709651 
L 711.98 114.709651 
" clip-path="url(#p007684c8dd)" style="fill: none; stroke-dasharray: 2.96,1.28; stroke-dashoffset: 0; stroke: #cccccc; stroke-opacity: 0.7; stroke-width: 0.8"/>
     </g>
     <g id="line2d_78"/>
    </g>
    <g id="ytick_25">
     <g id="line2d_79">
      <path d="M 495.36 93.962079 
L 711.98 93.962079 
" clip-path="url(#p007684c8dd)" style="fill: none; stroke-dasharray: 2.96,1.28; stroke-dashoffset: 0; stroke: #cccccc; stroke-opacity: 0.7; stroke-width: 0.8"/>
     </g>
     <g id="line2d_80"/>
    </g>
    <g id="ytick_26">
     <g id="line2d_81">
      <path d="M 495.36 73.214508 
L 711.98 73.214508 
" clip-path="url(#p007684c8dd)" style="fill: none; stroke-dasharray: 2.96,1.28; stroke-dashoffset: 0; stroke: #cccccc; stroke-opacity: 0.7; stroke-width: 0.8"/>
     </g>
     <g id="line2d_82"/>
    </g>
    <g id="ytick_27">
     <g id="line2d_83">
      <path d="M 495.36 52.466936 
L 711.98 52.466936 
" clip-path="url(#p007684c8dd)" style="fill: none; stroke-dasharray: 2.96,1.28; stroke-dashoffset: 0; stroke: #cccccc; stroke-opacity: 0.7; stroke-width: 0.8"/>
     </g>
     <g id="line2d_84"/>
    </g>
   </g>
   <g id="patch_33">
    <path d="M 505.206364 218.44751 
L 519.871161 218.44751 
L 519.871161 133.518622 
L 505.206364 133.518622 
z
" clip-path="url(#p007684c8dd)" style="fill: #0000ff; opacity: 0.7"/>
   </g>
   <g id="patch_34">
    <path d="M 547.105783 218.44751 
L 561.77058 218.44751 
L 561.77058 110.131992 
L 547.105783 110.131992 
z
" clip-path="url(#p007684c8dd)" style="fill: #0000ff; opacity: 0.7"/>
   </g>
   <g id="patch_35">
    <path d="M 589.005203 218.44751 
L 603.67 218.44751 
L 603.67 91.651853 
L 589.005203 91.651853 
z
" clip-path="url(#p007684c8dd)" style="fill: #0000ff; opacity: 0.7"/>
   </g>
   <g id="patch_36">
    <path d="M 630.904623 218.44751 
L 645.56942 218.44751 
L 645.56942 71.153721 
L 630.904623 71.153721 
z
" clip-path="url(#p007684c8dd)" style="fill: #0000ff; opacity: 0.7"/>
   </g>
   <g id="patch_37">
    <path d="M 672.804043 218.44751 
L 687.468839 218.44751 
L 687.468839 58.338819 
L 672.804043 58.338819 
z
" clip-path="url(#p007684c8dd)" style="fill: #0000ff; opacity: 0.7"/>
   </g>
   <g id="patch_38">
    <path d="M 519.871161 218.44751 
L 534.535957 218.44751 
L 534.535957 105.004631 
L 519.871161 105.004631 
z
" clip-path="url(#p007684c8dd)" style="fill: #008000; opacity: 0.7"/>
   </g>
   <g id="patch_39">
    <path d="M 561.77058 218.44751 
L 576.435377 218.44751 
L 576.435377 89.738358 
L 561.77058 89.738358 
z
" clip-path="url(#p007684c8dd)" style="fill: #008000; opacity: 0.7"/>
   </g>
   <g id="patch_40">
    <path d="M 603.67 218.44751 
L 618.334797 218.44751 
L 618.334797 88.428916 
L 603.67 88.428916 
z
" clip-path="url(#p007684c8dd)" style="fill: #008000; opacity: 0.7"/>
   </g>
   <g id="patch_41">
    <path d="M 645.56942 218.44751 
L 660.234217 218.44751 
L 660.234217 80.195407 
L 645.56942 80.195407 
z
" clip-path="url(#p007684c8dd)" style="fill: #008000; opacity: 0.7"/>
   </g>
   <g id="patch_42">
    <path d="M 687.468839 218.44751 
L 702.133636 218.44751 
L 702.133636 77.453954 
L 687.468839 77.453954 
z
" clip-path="url(#p007684c8dd)" style="fill: #008000; opacity: 0.7"/>
   </g>
   <g id="patch_43">
    <path d="M 495.36 218.44751 
L 495.36 46.94 
" style="fill: none; stroke: #cccccc; stroke-linejoin: miter; stroke-linecap: square"/>
   </g>
   <g id="patch_44">
    <path d="M 711.98 218.44751 
L 711.98 46.94 
" style="fill: none; stroke: #cccccc; stroke-linejoin: miter; stroke-linecap: square"/>
   </g>
   <g id="patch_45">
    <path d="M 495.36 218.44751 
L 711.98 218.44751 
" style="fill: none; stroke: #cccccc; stroke-linejoin: miter; stroke-linecap: square"/>
   </g>
   <g id="patch_46">
    <path d="M 495.36 46.94 
L 711.98 46.94 
" style="fill: none; stroke: #cccccc; stroke-linejoin: miter; stroke-linecap: square"/>
   </g>
   <g id="text_49">
    <!-- 205 -->
    <g style="fill: #262626" transform="translate(505.865637 128.858622) scale(0.08 -0.08)">
     <use xlink:href="#LiberationSans-32"/>
     <use xlink:href="#LiberationSans-30" transform="translate(55.615234 0)"/>
     <use xlink:href="#LiberationSans-35" transform="translate(111.230469 0)"/>
    </g>
   </g>
   <g id="text_50">
    <!-- 261 -->
    <g style="fill: #262626" transform="translate(547.765057 105.471992) scale(0.08 -0.08)">
     <use xlink:href="#LiberationSans-32"/>
     <use xlink:href="#LiberationSans-36" transform="translate(55.615234 0)"/>
     <use xlink:href="#LiberationSans-31" transform="translate(111.230469 0)"/>
    </g>
   </g>
   <g id="text_51">
    <!-- 306 -->
    <g style="fill: #262626" transform="translate(589.664477 86.991853) scale(0.08 -0.08)">
     <use xlink:href="#LiberationSans-33"/>
     <use xlink:href="#LiberationSans-30" transform="translate(55.615234 0)"/>
     <use xlink:href="#LiberationSans-36" transform="translate(111.230469 0)"/>
    </g>
   </g>
   <g id="text_52">
    <!-- 355 -->
    <g style="fill: #262626" transform="translate(631.563896 66.493721) scale(0.08 -0.08)">
     <use xlink:href="#LiberationSans-33"/>
     <use xlink:href="#LiberationSans-35" transform="translate(55.615234 0)"/>
     <use xlink:href="#LiberationSans-35" transform="translate(111.230469 0)"/>
    </g>
   </g>
   <g id="text_53">
    <!-- 386 -->
    <g style="fill: #262626" transform="translate(673.463316 53.678819) scale(0.08 -0.08)">
     <use xlink:href="#LiberationSans-33"/>
     <use xlink:href="#LiberationSans-38" transform="translate(55.615234 0)"/>
     <use xlink:href="#LiberationSans-36" transform="translate(111.230469 0)"/>
    </g>
   </g>
   <g id="text_54">
    <!-- 273 -->
    <g style="fill: #262626" transform="translate(520.530434 100.344631) scale(0.08 -0.08)">
     <use xlink:href="#LiberationSans-32"/>
     <use xlink:href="#LiberationSans-37" transform="translate(55.615234 0)"/>
     <use xlink:href="#LiberationSans-33" transform="translate(111.230469 0)"/>
    </g>
   </g>
   <g id="text_55">
    <!-- 310 -->
    <g style="fill: #262626" transform="translate(562.429854 85.078358) scale(0.08 -0.08)">
     <use xlink:href="#LiberationSans-33"/>
     <use xlink:href="#LiberationSans-31" transform="translate(55.615234 0)"/>
     <use xlink:href="#LiberationSans-30" transform="translate(111.230469 0)"/>
    </g>
   </g>
   <g id="text_56">
    <!-- 313 -->
    <g style="fill: #262626" transform="translate(604.329273 83.768916) scale(0.08 -0.08)">
     <use xlink:href="#LiberationSans-33"/>
     <use xlink:href="#LiberationSans-31" transform="translate(55.615234 0)"/>
     <use xlink:href="#LiberationSans-33" transform="translate(111.230469 0)"/>
    </g>
   </g>
   <g id="text_57">
    <!-- 333 -->
    <g style="fill: #262626" transform="translate(646.228693 75.535407) scale(0.08 -0.08)">
     <use xlink:href="#LiberationSans-33"/>
     <use xlink:href="#LiberationSans-33" transform="translate(55.615234 0)"/>
     <use xlink:href="#LiberationSans-33" transform="translate(111.230469 0)"/>
    </g>
   </g>
   <g id="text_58">
    <!-- 340 -->
    <g style="fill: #262626" transform="translate(688.128113 72.793954) scale(0.08 -0.08)">
     <use xlink:href="#LiberationSans-33"/>
     <use xlink:href="#LiberationSans-34" transform="translate(55.615234 0)"/>
     <use xlink:href="#LiberationSans-30" transform="translate(111.230469 0)"/>
    </g>
   </g>
   <g id="text_59">
    <!-- $K = 4000$ -->
    <g style="fill: #262626" transform="translate(579.748 40.94) scale(0.108 -0.108)">
     <defs>
      <path id="DejaVuSans-34" d="M 2419 4116 
L 825 1625 
L 2419 1625 
L 2419 4116 
z
M 2253 4666 
L 3047 4666 
L 3047 1625 
L 3713 1625 
L 3713 1100 
L 3047 1100 
L 3047 0 
L 2419 0 
L 2419 1100 
L 313 1100 
L 313 1709 
L 2253 4666 
z
" transform="scale(0.015625)"/>
     </defs>
     <use xlink:href="#DejaVuSans-Oblique-4b" transform="translate(0 0.78125)"/>
     <use xlink:href="#DejaVuSans-3d" transform="translate(85.058594 0.78125)"/>
     <use xlink:href="#DejaVuSans-34" transform="translate(188.330078 0.78125)"/>
     <use xlink:href="#DejaVuSans-30" transform="translate(251.953125 0.78125)"/>
     <use xlink:href="#DejaVuSans-30" transform="translate(315.576172 0.78125)"/>
     <use xlink:href="#DejaVuSans-30" transform="translate(379.199219 0.78125)"/>
    </g>
   </g>
  </g>
  <g id="legend_1">
   <g id="patch_47">
    <path d="M 9.9 17.871562 
L 31.9 17.871562 
L 31.9 10.171562 
L 9.9 10.171562 
z
" style="fill: #0000ff; opacity: 0.7"/>
   </g>
   <g id="text_60">
    <!-- Global Memory -->
    <g style="fill: #262626" transform="translate(40.7 17.871562) scale(0.11 -0.11)">
     <defs>
      <path id="LiberationSans-47" d="M 322 2222 
Q 322 3294 897 3881 
Q 1472 4469 2513 4469 
Q 3244 4469 3700 4222 
Q 4156 3975 4403 3431 
L 3834 3263 
Q 3647 3638 3317 3809 
Q 2988 3981 2497 3981 
Q 1734 3981 1331 3520 
Q 928 3059 928 2222 
Q 928 1388 1356 905 
Q 1784 422 2541 422 
Q 2972 422 3345 553 
Q 3719 684 3950 909 
L 3950 1703 
L 2634 1703 
L 2634 2203 
L 4500 2203 
L 4500 684 
Q 4150 328 3642 132 
Q 3134 -63 2541 -63 
Q 1850 -63 1350 212 
Q 850 488 586 1005 
Q 322 1522 322 2222 
z
" transform="scale(0.015625)"/>
      <path id="LiberationSans-6c" d="M 431 0 
L 431 4638 
L 994 4638 
L 994 0 
L 431 0 
z
" transform="scale(0.015625)"/>
      <path id="LiberationSans-61" d="M 1294 -63 
Q 784 -63 528 206 
Q 272 475 272 944 
Q 272 1469 617 1750 
Q 963 2031 1731 2050 
L 2491 2063 
L 2491 2247 
Q 2491 2659 2316 2837 
Q 2141 3016 1766 3016 
Q 1388 3016 1216 2887 
Q 1044 2759 1009 2478 
L 422 2531 
Q 566 3444 1778 3444 
Q 2416 3444 2737 3151 
Q 3059 2859 3059 2306 
L 3059 850 
Q 3059 600 3125 473 
Q 3191 347 3375 347 
Q 3456 347 3559 369 
L 3559 19 
Q 3347 -31 3125 -31 
Q 2813 -31 2670 133 
Q 2528 297 2509 647 
L 2491 647 
Q 2275 259 1989 98 
Q 1703 -63 1294 -63 
z
M 1422 359 
Q 1731 359 1972 500 
Q 2213 641 2352 886 
Q 2491 1131 2491 1391 
L 2491 1669 
L 1875 1656 
Q 1478 1650 1273 1575 
Q 1069 1500 959 1344 
Q 850 1188 850 934 
Q 850 659 998 509 
Q 1147 359 1422 359 
z
" transform="scale(0.015625)"/>
      <path id="LiberationSans-4d" d="M 4269 0 
L 4269 2938 
Q 4269 3425 4297 3875 
Q 4144 3316 4022 3000 
L 2884 0 
L 2466 0 
L 1313 3000 
L 1138 3531 
L 1034 3875 
L 1044 3528 
L 1056 2938 
L 1056 0 
L 525 0 
L 525 4403 
L 1309 4403 
L 2481 1350 
Q 2544 1166 2601 955 
Q 2659 744 2678 650 
Q 2703 775 2783 1029 
Q 2863 1284 2891 1350 
L 4041 4403 
L 4806 4403 
L 4806 0 
L 4269 0 
z
" transform="scale(0.015625)"/>
      <path id="LiberationSans-79" d="M 597 -1328 
Q 366 -1328 209 -1294 
L 209 -872 
Q 328 -891 472 -891 
Q 997 -891 1303 -119 
L 1356 16 
L 16 3381 
L 616 3381 
L 1328 1513 
Q 1344 1469 1366 1408 
Q 1388 1347 1506 1000 
Q 1625 653 1634 613 
L 1853 1228 
L 2594 3381 
L 3188 3381 
L 1888 0 
Q 1678 -541 1497 -805 
Q 1316 -1069 1095 -1198 
Q 875 -1328 597 -1328 
z
" transform="scale(0.015625)"/>
     </defs>
     <use xlink:href="#LiberationSans-47"/>
     <use xlink:href="#LiberationSans-6c" transform="translate(77.783203 0)"/>
     <use xlink:href="#LiberationSans-6f" transform="translate(100 0)"/>
     <use xlink:href="#LiberationSans-62" transform="translate(155.615234 0)"/>
     <use xlink:href="#LiberationSans-61" transform="translate(211.230469 0)"/>
     <use xlink:href="#LiberationSans-6c" transform="translate(266.845703 0)"/>
     <use xlink:href="#LiberationSans-20" transform="translate(289.0625 0)"/>
     <use xlink:href="#LiberationSans-4d" transform="translate(316.845703 0)"/>
     <use xlink:href="#LiberationSans-65" transform="translate(400.146484 0)"/>
     <use xlink:href="#LiberationSans-6d" transform="translate(455.761719 0)"/>
     <use xlink:href="#LiberationSans-6f" transform="translate(539.0625 0)"/>
     <use xlink:href="#LiberationSans-72" transform="translate(594.677734 0)"/>
     <use xlink:href="#LiberationSans-79" transform="translate(627.978516 0)"/>
    </g>
   </g>
   <g id="patch_48">
    <path d="M 137.273125 17.871562 
L 159.273125 17.871562 
L 159.273125 10.171562 
L 137.273125 10.171562 
z
" style="fill: #008000; opacity: 0.7"/>
   </g>
   <g id="text_61">
    <!-- Shared Memory -->
    <g style="fill: #262626" transform="translate(168.073125 17.871562) scale(0.11 -0.11)">
     <defs>
      <path id="LiberationSans-68" d="M 991 2803 
Q 1172 3134 1426 3289 
Q 1681 3444 2072 3444 
Q 2622 3444 2883 3170 
Q 3144 2897 3144 2253 
L 3144 0 
L 2578 0 
L 2578 2144 
Q 2578 2500 2512 2673 
Q 2447 2847 2297 2928 
Q 2147 3009 1881 3009 
Q 1484 3009 1245 2734 
Q 1006 2459 1006 1994 
L 1006 0 
L 444 0 
L 444 4638 
L 1006 4638 
L 1006 3431 
Q 1006 3241 995 3037 
Q 984 2834 981 2803 
L 991 2803 
z
" transform="scale(0.015625)"/>
     </defs>
     <use xlink:href="#LiberationSans-53"/>
     <use xlink:href="#LiberationSans-68" transform="translate(66.699219 0)"/>
     <use xlink:href="#LiberationSans-61" transform="translate(122.314453 0)"/>
     <use xlink:href="#LiberationSans-72" transform="translate(177.929688 0)"/>
     <use xlink:href="#LiberationSans-65" transform="translate(211.230469 0)"/>
     <use xlink:href="#LiberationSans-64" transform="translate(266.845703 0)"/>
     <use xlink:href="#LiberationSans-20" transform="translate(322.460938 0)"/>
     <use xlink:href="#LiberationSans-4d" transform="translate(350.244141 0)"/>
     <use xlink:href="#LiberationSans-65" transform="translate(433.544922 0)"/>
     <use xlink:href="#LiberationSans-6d" transform="translate(489.160156 0)"/>
     <use xlink:href="#LiberationSans-6f" transform="translate(572.460938 0)"/>
     <use xlink:href="#LiberationSans-72" transform="translate(628.076172 0)"/>
     <use xlink:href="#LiberationSans-79" transform="translate(661.376953 0)"/>
    </g>
   </g>
  </g>
 </g>
 <defs>
  <clipPath id="p57570ab036">
   <rect x="42.68" y="46.94" width="216.62" height="171.50751"/>
  </clipPath>
  <clipPath id="p652bc35afb">
   <rect x="269.02" y="46.94" width="216.62" height="171.50751"/>
  </clipPath>
  <clipPath id="p007684c8dd">
   <rect x="495.36" y="46.94" width="216.62" height="171.50751"/>
  </clipPath>
 </defs>
</svg>
